<svg width="32" height="32" viewBox="0 0 32 32" xmlns="http://www.w3.org/2000/svg">
  <defs>
    <linearGradient id="orangeGrad" x1="0%" y1="0%" x2="100%" y2="100%">
      <stop offset="0%" style="stop-color:#FFD700;stop-opacity:1" />
      <stop offset="100%" style="stop-color:#FFA500;stop-opacity:1" />
    </linearGradient>
    <linearGradient id="darkGrad" x1="0%" y1="0%" x2="100%" y2="100%">
      <stop offset="0%" style="stop-color:#34495E;stop-opacity:1" />
      <stop offset="100%" style="stop-color:#2C3E50;stop-opacity:1" />
    </linearGradient>
  </defs>
  
  <!-- Background -->
  <rect width="32" height="32" fill="transparent"/>
  
  <!-- Main shape -->
  <path d="M8 24C8 18.1 12.9 13 19 13H24C24 19.1 19.1 24 13 24H8Z" fill="url(#orangeGrad)"/>
  
  <!-- Globe -->
  <circle cx="16" cy="16" r="7.5" fill="url(#darkGrad)"/>
  
  <!-- Dollar sign -->
  <g stroke="white" stroke-width="1.2" fill="none">
    <line x1="16" y1="11" x2="16" y2="21"/>
    <path d="M14 13H17.5C18.3 13 19 13.7 19 14.5C19 15.3 18.3 16 17.5 16H14.5C13.7 16 13 16.7 13 17.5C13 18.3 13.7 19 14.5 19H18"/>
  </g>
  
  <!-- Arrow -->
  <path d="M8.5 10L10.5 9L10 12Z" fill="url(#orangeGrad)"/>
</svg>
